<svg width="24" height="25" viewBox="0 0 24 25" fill="none" xmlns="http://www.w3.org/2000/svg">
<g clip-path="url(#clip0_16_194)">
<path d="M12 24.228L5.636 17.864C4.37734 16.6053 3.52019 15.0017 3.17293 13.2558C2.82567 11.51 3.00391 9.70043 3.6851 8.0559C4.36629 6.41137 5.51984 5.00577 6.99988 4.01684C8.47992 3.02791 10.22 2.50008 12 2.50008C13.78 2.50008 15.5201 3.02791 17.0001 4.01684C18.4802 5.00577 19.6337 6.41137 20.3149 8.0559C20.9961 9.70043 21.1743 11.51 20.8271 13.2558C20.4798 15.0017 19.6227 16.6053 18.364 17.864L12 24.228ZM16.95 16.45C17.9289 15.471 18.5955 14.2237 18.8656 12.8659C19.1356 11.508 18.9969 10.1006 18.4671 8.82155C17.9373 7.54251 17.04 6.4493 15.8889 5.68017C14.7378 4.91103 13.3844 4.5005 12 4.5005C10.6156 4.5005 9.26222 4.91103 8.11109 5.68017C6.95996 6.4493 6.06275 7.54251 5.53292 8.82155C5.00308 10.1006 4.86442 11.508 5.13445 12.8659C5.40449 14.2237 6.07111 15.471 7.05 16.45L12 21.4L16.95 16.45ZM12 13.5C11.4696 13.5 10.9609 13.2893 10.5858 12.9142C10.2107 12.5391 10 12.0304 10 11.5C10 10.9696 10.2107 10.4609 10.5858 10.0858C10.9609 9.71071 11.4696 9.5 12 9.5C12.5304 9.5 13.0391 9.71071 13.4142 10.0858C13.7893 10.4609 14 10.9696 14 11.5C14 12.0304 13.7893 12.5391 13.4142 12.9142C13.0391 13.2893 12.5304 13.5 12 13.5Z" fill="white"/>
</g>
<defs>
<clipPath id="clip0_16_194">
<rect width="24" height="24" fill="white" transform="translate(0 0.5)"/>
</clipPath>
</defs>
</svg>
